<svg width="265" height="79" viewBox="0 0 265 79" fill="none" xmlns="http://www.w3.org/2000/svg">
<path d="M65.1771 22.1186C63.1108 22.1186 61.1654 21.0115 60.0175 19.2374C58.5675 19.1997 57.1538 18.6209 56.0542 17.5892C54.7492 16.3562 54 14.6074 54 12.7956C54 11.0845 54.6404 9.47403 55.7763 8.27876C55.7038 7.86357 55.6675 7.44837 55.6675 7.02059C55.6675 3.14543 58.6883 0 62.41 0C62.41 0 62.41 0 62.4221 0C63.9808 0 65.4792 0.566177 66.6633 1.57271C67.6179 0.918465 68.7054 0.616504 69.8896 0.578759C71.5088 0.578759 73.0433 1.28333 74.155 2.4786C74.6625 2.36536 75.1821 2.30245 75.7017 2.30245C79.7254 2.30245 83 5.7121 83 9.9018C83 14.0915 79.7254 17.5012 75.7017 17.5012C75.6654 17.5012 75.6413 17.5012 75.605 17.5012C74.4933 18.9481 72.7896 19.8414 70.9892 19.8036C70.9892 19.8036 70.9892 19.8036 70.9771 19.8036C70.6388 19.8036 70.3125 19.7784 69.9862 19.7155C68.8263 21.2253 67.05 22.1186 65.1771 22.1186ZM61.4192 16.6079L61.7937 17.4005C62.4221 18.7342 63.7513 19.6023 65.1892 19.6023C66.5183 19.6023 67.775 18.86 68.4517 17.6521L68.9471 16.7588L69.8775 17.0985C70.24 17.2244 70.6146 17.2873 70.9892 17.2873H71.0012C72.2096 17.2873 73.3454 16.6204 73.9738 15.5384L74.3846 14.8338L75.17 14.9345C75.3513 14.9597 75.5325 14.9722 75.7137 14.9722C78.4083 14.9722 80.5954 12.6949 80.5954 9.88922C80.5954 7.0835 78.4083 4.80621 75.7137 4.80621C75.17 4.80621 74.6383 4.89428 74.1308 5.08301L73.2608 5.39755L72.7413 4.63007C72.0888 3.66128 71.0133 3.0951 69.8775 3.08252C68.9833 3.10768 68.0892 3.44739 67.4367 4.1268L66.5183 5.08301L65.6725 4.06389C64.8508 3.08252 63.6667 2.51634 62.41 2.51634C60.0175 2.51634 58.0842 4.542 58.0842 7.02059C58.0842 7.46095 58.1446 7.91389 58.2775 8.34167L58.5192 9.17207L57.8667 9.7005C56.9483 10.4428 56.4167 11.5752 56.4167 12.783C56.4167 13.8902 56.8758 14.9597 57.6733 15.7146C58.4708 16.4695 59.51 16.8217 60.5733 16.6959L61.4192 16.6079Z" fill="#B37E37"/>
<path d="M88.586 39.312C88.586 40.2307 88.3693 41.0973 87.936 41.912C87.5027 42.7267 86.8093 43.394 85.856 43.914C84.9027 44.4167 83.6807 44.668 82.19 44.668H78.914V52H75.95V33.93H82.19C83.5767 33.93 84.7467 34.1727 85.7 34.658C86.6707 35.126 87.39 35.7673 87.858 36.582C88.3433 37.3967 88.586 38.3067 88.586 39.312ZM82.19 42.25C83.3167 42.25 84.1573 41.9987 84.712 41.496C85.2667 40.976 85.544 40.248 85.544 39.312C85.544 37.336 84.426 36.348 82.19 36.348H78.914V42.25H82.19ZM105.843 33.93V52H102.879V44.096H94.3769V52H91.4129V33.93H94.3769V41.678H102.879V33.93H105.843ZM117.987 52.182C116.306 52.182 114.754 51.792 113.333 51.012C111.929 50.2147 110.811 49.114 109.979 47.71C109.164 46.2887 108.757 44.694 108.757 42.926C108.757 41.158 109.164 39.572 109.979 38.168C110.811 36.764 111.929 35.672 113.333 34.892C114.754 34.0947 116.306 33.696 117.987 33.696C119.686 33.696 121.237 34.0947 122.641 34.892C124.062 35.672 125.18 36.764 125.995 38.168C126.81 39.572 127.217 41.158 127.217 42.926C127.217 44.694 126.81 46.2887 125.995 47.71C125.18 49.114 124.062 50.2147 122.641 51.012C121.237 51.792 119.686 52.182 117.987 52.182ZM117.987 49.608C119.183 49.608 120.249 49.3393 121.185 48.802C122.121 48.2473 122.849 47.4673 123.369 46.462C123.906 45.4393 124.175 44.2607 124.175 42.926C124.175 41.5913 123.906 40.4213 123.369 39.416C122.849 38.4107 122.121 37.6393 121.185 37.102C120.249 36.5647 119.183 36.296 117.987 36.296C116.791 36.296 115.725 36.5647 114.789 37.102C113.853 37.6393 113.116 38.4107 112.579 39.416C112.059 40.4213 111.799 41.5913 111.799 42.926C111.799 44.2607 112.059 45.4393 112.579 46.462C113.116 47.4673 113.853 48.2473 114.789 48.802C115.725 49.3393 116.791 49.608 117.987 49.608ZM141.808 33.93V36.348H136.998V52H134.034V36.348H129.198V33.93H141.808ZM153.051 52.182C151.37 52.182 149.819 51.792 148.397 51.012C146.993 50.2147 145.875 49.114 145.043 47.71C144.229 46.2887 143.821 44.694 143.821 42.926C143.821 41.158 144.229 39.572 145.043 38.168C145.875 36.764 146.993 35.672 148.397 34.892C149.819 34.0947 151.37 33.696 153.051 33.696C154.75 33.696 156.301 34.0947 157.705 34.892C159.127 35.672 160.245 36.764 161.059 38.168C161.874 39.572 162.281 41.158 162.281 42.926C162.281 44.694 161.874 46.2887 161.059 47.71C160.245 49.114 159.127 50.2147 157.705 51.012C156.301 51.792 154.75 52.182 153.051 52.182ZM153.051 49.608C154.247 49.608 155.313 49.3393 156.249 48.802C157.185 48.2473 157.913 47.4673 158.433 46.462C158.971 45.4393 159.239 44.2607 159.239 42.926C159.239 41.5913 158.971 40.4213 158.433 39.416C157.913 38.4107 157.185 37.6393 156.249 37.102C155.313 36.5647 154.247 36.296 153.051 36.296C151.855 36.296 150.789 36.5647 149.853 37.102C148.917 37.6393 148.181 38.4107 147.643 39.416C147.123 40.4213 146.863 41.5913 146.863 42.926C146.863 44.2607 147.123 45.4393 147.643 46.462C148.181 47.4673 148.917 48.2473 149.853 48.802C150.789 49.3393 151.855 49.608 153.051 49.608ZM175.832 33.93V36.348H168.162V41.678H174.142V44.096H168.162V52H165.198V33.93H175.832ZM181.543 49.608H187.653V52H178.579V33.93H181.543V49.608ZM198.374 52.182C196.692 52.182 195.141 51.792 193.72 51.012C192.316 50.2147 191.198 49.114 190.366 47.71C189.551 46.2887 189.144 44.694 189.144 42.926C189.144 41.158 189.551 39.572 190.366 38.168C191.198 36.764 192.316 35.672 193.72 34.892C195.141 34.0947 196.692 33.696 198.374 33.696C200.072 33.696 201.624 34.0947 203.028 34.892C204.449 35.672 205.567 36.764 206.382 38.168C207.196 39.572 207.604 41.158 207.604 42.926C207.604 44.694 207.196 46.2887 206.382 47.71C205.567 49.114 204.449 50.2147 203.028 51.012C201.624 51.792 200.072 52.182 198.374 52.182ZM198.374 49.608C199.57 49.608 200.636 49.3393 201.572 48.802C202.508 48.2473 203.236 47.4673 203.756 46.462C204.293 45.4393 204.562 44.2607 204.562 42.926C204.562 41.5913 204.293 40.4213 203.756 39.416C203.236 38.4107 202.508 37.6393 201.572 37.102C200.636 36.5647 199.57 36.296 198.374 36.296C197.178 36.296 196.112 36.5647 195.176 37.102C194.24 37.6393 193.503 38.4107 192.966 39.416C192.446 40.4213 192.186 41.5913 192.186 42.926C192.186 44.2607 192.446 45.4393 192.966 46.462C193.503 47.4673 194.24 48.2473 195.176 48.802C196.112 49.3393 197.178 49.608 198.374 49.608ZM234.05 33.93L228.694 52H225.34L221.544 38.324L217.514 52L214.186 52.026L209.064 33.93H212.21L215.954 48.646L220.01 33.93H223.338L227.108 48.568L230.878 33.93H234.05Z" fill="url(#paint0_linear_46_1430)"/>
<path d="M25.0521 71.5763C20.4208 71.5763 16.0604 69.0946 13.4875 65.1184C10.2375 65.0338 7.06875 63.7366 4.60417 61.4241C1.67917 58.6605 0 54.7406 0 50.6798C0 46.8445 1.43542 43.2349 3.98125 40.5558C3.81875 39.6252 3.7375 38.6946 3.7375 37.7358C3.7375 29.0501 10.5083 22 18.85 22C18.85 22 18.85 22 18.8771 22C22.3708 22 25.7292 23.269 28.3833 25.525C30.5229 24.0586 32.9604 23.3818 35.6146 23.2972C39.2437 23.2972 42.6833 24.8764 45.175 27.5555C46.3125 27.3017 47.4771 27.1607 48.6417 27.1607C57.6604 27.1607 65 34.803 65 44.1937C65 53.5844 57.6604 61.2267 48.6417 61.2267C48.5604 61.2267 48.5062 61.2267 48.425 61.2267C45.9333 64.4698 42.1146 66.472 38.0792 66.3874C38.0792 66.3874 38.0792 66.3874 38.0521 66.3874C37.2938 66.3874 36.5625 66.331 35.8312 66.19C33.2312 69.574 29.25 71.5763 25.0521 71.5763ZM16.6292 59.2245L17.4687 61.0011C18.8771 63.9904 21.8563 65.9362 25.0792 65.9362C28.0583 65.9362 30.875 64.2724 32.3917 61.5651L33.5021 59.5629L35.5875 60.3243C36.4 60.6063 37.2396 60.7473 38.0792 60.7473H38.1062C40.8146 60.7473 43.3604 59.2527 44.7687 56.8275L45.6896 55.2482L47.45 55.4739C47.8563 55.5303 48.2625 55.5584 48.6687 55.5584C54.7083 55.5584 59.6104 50.4542 59.6104 44.1655C59.6104 37.8768 54.7083 32.7725 48.6687 32.7725C47.45 32.7725 46.2583 32.9699 45.1208 33.393L43.1708 34.098L42.0062 32.3777C40.5438 30.2063 38.1333 28.9373 35.5875 28.9091C33.5833 28.9655 31.5792 29.7269 30.1167 31.2497L28.0583 33.393L26.1625 31.1087C24.3208 28.9091 21.6667 27.6401 18.85 27.6401C13.4875 27.6401 9.15417 32.1803 9.15417 37.7358C9.15417 38.7228 9.28958 39.738 9.5875 40.6969L10.1292 42.5581L8.66667 43.7425C6.60833 45.4063 5.41667 47.9443 5.41667 50.6516C5.41667 53.1332 6.44583 55.5303 8.23333 57.2223C10.0208 58.9143 12.35 59.7039 14.7333 59.4219L16.6292 59.2245Z" fill="#B37E37"/>
<path d="M85.13 70.26L83.91 68.94C83.61 69.0267 83.28 69.07 82.92 69.07C82.2733 69.07 81.6767 68.92 81.13 68.62C80.59 68.3133 80.16 67.89 79.84 67.35C79.5267 66.8033 79.37 66.19 79.37 65.51C79.37 64.83 79.5267 64.22 79.84 63.68C80.16 63.14 80.59 62.72 81.13 62.42C81.6767 62.1133 82.2733 61.96 82.92 61.96C83.5733 61.96 84.17 62.1133 84.71 62.42C85.2567 62.72 85.6867 63.14 86 63.68C86.3133 64.22 86.47 64.83 86.47 65.51C86.47 66.15 86.33 66.73 86.05 67.25C85.7767 67.7633 85.3967 68.1767 84.91 68.49L86.58 70.26H85.13ZM80.54 65.51C80.54 66.0233 80.64 66.4767 80.84 66.87C81.0467 67.2567 81.33 67.5567 81.69 67.77C82.05 67.9767 82.46 68.08 82.92 68.08C83.38 68.08 83.79 67.9767 84.15 67.77C84.51 67.5567 84.79 67.2567 84.99 66.87C85.1967 66.4767 85.3 66.0233 85.3 65.51C85.3 64.9967 85.1967 64.5467 84.99 64.16C84.79 63.7733 84.51 63.4767 84.15 63.27C83.79 63.0633 83.38 62.96 82.92 62.96C82.46 62.96 82.05 63.0633 81.69 63.27C81.33 63.4767 81.0467 63.7733 80.84 64.16C80.64 64.5467 80.54 64.9967 80.54 65.51ZM92.6111 63.49V69H91.4711V68.35C91.2911 68.5767 91.0544 68.7567 90.7611 68.89C90.4744 69.0167 90.1678 69.08 89.8411 69.08C89.4078 69.08 89.0178 68.99 88.6711 68.81C88.3311 68.63 88.0611 68.3633 87.8611 68.01C87.6678 67.6567 87.5711 67.23 87.5711 66.73V63.49H88.7011V66.56C88.7011 67.0533 88.8244 67.4333 89.0711 67.7C89.3178 67.96 89.6544 68.09 90.0811 68.09C90.5078 68.09 90.8444 67.96 91.0911 67.7C91.3444 67.4333 91.4711 67.0533 91.4711 66.56V63.49H92.6111ZM96.2852 63.51C96.9652 63.51 97.4719 63.66 97.8052 63.96C98.1386 64.2533 98.3052 64.7167 98.3052 65.35V69H97.5552L97.3452 68.25H97.3052C97.1519 68.4433 96.9919 68.6033 96.8252 68.73C96.6652 68.8567 96.4786 68.95 96.2652 69.01C96.0586 69.07 95.8052 69.1 95.5052 69.1C95.1852 69.1 94.8952 69.0433 94.6352 68.93C94.3819 68.81 94.1819 68.63 94.0352 68.39C93.8886 68.1433 93.8152 67.8367 93.8152 67.47C93.8152 66.9233 94.0219 66.5067 94.4352 66.22C94.8552 65.9333 95.4919 65.7767 96.3452 65.75L97.2652 65.72V65.42C97.2652 65.02 97.1752 64.74 96.9952 64.58C96.8152 64.42 96.5619 64.34 96.2352 64.34C95.9552 64.34 95.6886 64.38 95.4352 64.46C95.1819 64.54 94.9419 64.6367 94.7152 64.75L94.3752 63.98C94.6286 63.8467 94.9186 63.7367 95.2452 63.65C95.5786 63.5567 95.9252 63.51 96.2852 63.51ZM96.5352 66.43C95.9219 66.4567 95.4952 66.56 95.2552 66.74C95.0219 66.9133 94.9052 67.16 94.9052 67.48C94.9052 67.76 94.9886 67.9633 95.1552 68.09C95.3286 68.2167 95.5452 68.28 95.8052 68.28C96.2252 68.28 96.5719 68.1633 96.8452 67.93C97.1186 67.6967 97.2552 67.3467 97.2552 66.88V66.41L96.5352 66.43ZM97.3052 61.71C97.3052 61.9633 97.2319 62.1633 97.0852 62.31C96.9386 62.45 96.7419 62.55 96.4952 62.61L96.4452 63.09H95.8152L95.7352 62.27C95.9752 62.23 96.1586 62.1733 96.2852 62.1C96.4119 62.02 96.4752 61.9067 96.4752 61.76C96.4752 61.62 96.4219 61.5233 96.3152 61.47C96.2086 61.4167 96.0752 61.39 95.9152 61.39C95.8152 61.39 95.7152 61.3967 95.6152 61.41C95.5219 61.4167 95.4419 61.43 95.3752 61.45V60.84C95.4419 60.8133 95.5286 60.7933 95.6352 60.78C95.7486 60.7667 95.8752 60.76 96.0152 60.76C96.4286 60.76 96.7452 60.84 96.9652 61C97.1919 61.1533 97.3052 61.39 97.3052 61.71ZM102.637 63.4C103.071 63.4 103.457 63.49 103.797 63.67C104.144 63.85 104.414 64.1167 104.607 64.47C104.801 64.8233 104.897 65.25 104.897 65.75V69H103.767V65.92C103.767 65.4267 103.644 65.05 103.397 64.79C103.151 64.5233 102.814 64.39 102.387 64.39C101.961 64.39 101.621 64.5233 101.367 64.79C101.121 65.05 100.997 65.4267 100.997 65.92V69H99.8574V63.49H100.997V64.12C101.184 63.8933 101.421 63.7167 101.707 63.59C102.001 63.4633 102.311 63.4 102.637 63.4ZM110.089 61.6V69H108.949V61.6H110.089ZM116.546 63.49L113.166 71.59H111.986L113.106 68.91L110.936 63.49H112.206L113.756 67.69L115.366 63.49H116.546ZM114.776 62.01L112.566 63.1V62.26L114.776 61.04V62.01ZM125.374 69L124.514 68.14C124.181 68.4733 123.817 68.7233 123.424 68.89C123.031 69.05 122.591 69.13 122.104 69.13C121.611 69.13 121.174 69.0433 120.794 68.87C120.414 68.6967 120.121 68.45 119.914 68.13C119.707 67.8033 119.604 67.4267 119.604 67C119.604 66.52 119.741 66.0933 120.014 65.72C120.287 65.34 120.694 65.04 121.234 64.82C121.041 64.5867 120.904 64.37 120.824 64.17C120.744 63.9633 120.704 63.7367 120.704 63.49C120.704 63.1833 120.781 62.91 120.934 62.67C121.094 62.43 121.321 62.24 121.614 62.1C121.907 61.96 122.247 61.89 122.634 61.89C123.027 61.89 123.361 61.9667 123.634 62.12C123.914 62.2667 124.121 62.47 124.254 62.73C124.394 62.99 124.451 63.28 124.424 63.6H123.284C123.291 63.3533 123.231 63.1633 123.104 63.03C122.977 62.89 122.804 62.82 122.584 62.82C122.364 62.82 122.184 62.8867 122.044 63.02C121.911 63.1467 121.844 63.3033 121.844 63.49C121.844 63.67 121.894 63.85 121.994 64.03C122.101 64.2033 122.284 64.43 122.544 64.71L124.384 66.54L125.094 65.37H126.324L125.424 66.91L125.174 67.32L126.864 69H125.374ZM122.104 68.16C122.731 68.16 123.284 67.9033 123.764 67.39L121.924 65.54C121.137 65.8533 120.744 66.3267 120.744 66.96C120.744 67.3 120.871 67.5867 121.124 67.82C121.377 68.0467 121.704 68.16 122.104 68.16ZM129.829 65.51C129.829 64.83 129.986 64.22 130.299 63.68C130.619 63.14 131.049 62.72 131.589 62.42C132.136 62.1133 132.732 61.96 133.379 61.96C134.119 61.96 134.776 62.1433 135.349 62.51C135.929 62.87 136.349 63.3833 136.609 64.05H135.239C135.059 63.6833 134.809 63.41 134.489 63.23C134.169 63.05 133.799 62.96 133.379 62.96C132.919 62.96 132.509 63.0633 132.149 63.27C131.789 63.4767 131.506 63.7733 131.299 64.16C131.099 64.5467 130.999 64.9967 130.999 65.51C130.999 66.0233 131.099 66.4733 131.299 66.86C131.506 67.2467 131.789 67.5467 132.149 67.76C132.509 67.9667 132.919 68.07 133.379 68.07C133.799 68.07 134.169 67.98 134.489 67.8C134.809 67.62 135.059 67.3467 135.239 66.98H136.609C136.349 67.6467 135.929 68.16 135.349 68.52C134.776 68.88 134.119 69.06 133.379 69.06C132.726 69.06 132.129 68.91 131.589 68.61C131.049 68.3033 130.619 67.88 130.299 67.34C129.986 66.8 129.829 66.19 129.829 65.51ZM140.793 63.4C141.213 63.4 141.587 63.49 141.913 63.67C142.247 63.85 142.507 64.1167 142.693 64.47C142.887 64.8233 142.983 65.25 142.983 65.75V69H141.853V65.92C141.853 65.4267 141.73 65.05 141.483 64.79C141.237 64.5233 140.9 64.39 140.473 64.39C140.047 64.39 139.707 64.5233 139.453 64.79C139.207 65.05 139.083 65.4267 139.083 65.92V69H137.943V61.6H139.083V64.13C139.277 63.8967 139.52 63.7167 139.813 63.59C140.113 63.4633 140.44 63.4 140.793 63.4ZM149.268 66.3C149.268 66.7467 149.208 67.1433 149.088 67.49C148.968 67.8367 148.798 68.13 148.578 68.37C148.358 68.61 148.091 68.7933 147.778 68.92C147.464 69.04 147.111 69.1 146.718 69.1C146.358 69.1 146.024 69.04 145.718 68.92C145.411 68.7933 145.144 68.61 144.918 68.37C144.698 68.13 144.524 67.8367 144.398 67.49C144.271 67.1433 144.208 66.7433 144.208 66.29C144.208 65.6967 144.308 65.1933 144.508 64.78C144.714 64.3667 145.008 64.0533 145.388 63.84C145.774 63.62 146.228 63.51 146.748 63.51C147.241 63.51 147.674 63.62 148.048 63.84C148.428 64.0533 148.724 64.3667 148.938 64.78C149.158 65.1933 149.268 65.7 149.268 66.3ZM145.298 66.3C145.298 66.7 145.348 67.0467 145.448 67.34C145.548 67.6267 145.704 67.8467 145.918 68C146.131 68.1533 146.404 68.23 146.738 68.23C147.071 68.23 147.344 68.1533 147.558 68C147.771 67.8467 147.928 67.6267 148.028 67.34C148.128 67.0467 148.178 66.7 148.178 66.3C148.178 65.8867 148.124 65.54 148.018 65.26C147.918 64.98 147.761 64.7667 147.548 64.62C147.341 64.4667 147.068 64.39 146.728 64.39C146.228 64.39 145.864 64.5567 145.638 64.89C145.411 65.2233 145.298 65.6933 145.298 66.3ZM146.718 70.86C146.551 70.86 146.408 70.81 146.288 70.71C146.168 70.6167 146.108 70.4633 146.108 70.25C146.108 70.03 146.168 69.8733 146.288 69.78C146.408 69.6867 146.551 69.64 146.718 69.64C146.878 69.64 147.018 69.6867 147.138 69.78C147.258 69.8733 147.318 70.03 147.318 70.25C147.318 70.4633 147.258 70.6167 147.138 70.71C147.018 70.81 146.878 70.86 146.718 70.86ZM153.311 63.4C153.745 63.4 154.131 63.49 154.471 63.67C154.818 63.85 155.088 64.1167 155.281 64.47C155.475 64.8233 155.571 65.25 155.571 65.75V69H154.441V65.92C154.441 65.4267 154.318 65.05 154.071 64.79C153.825 64.5233 153.488 64.39 153.061 64.39C152.635 64.39 152.295 64.5233 152.041 64.79C151.795 65.05 151.671 65.4267 151.671 65.92V69H150.531V63.49H151.671V64.12C151.858 63.8933 152.095 63.7167 152.381 63.59C152.675 63.4633 152.985 63.4 153.311 63.4ZM160.763 61.6V69H159.623V61.6H160.763ZM167.09 66.3C167.09 66.7467 167.03 67.1433 166.91 67.49C166.79 67.8367 166.62 68.13 166.4 68.37C166.18 68.61 165.913 68.7933 165.6 68.92C165.286 69.04 164.933 69.1 164.54 69.1C164.18 69.1 163.846 69.04 163.54 68.92C163.233 68.7933 162.966 68.61 162.74 68.37C162.52 68.13 162.346 67.8367 162.22 67.49C162.093 67.1433 162.03 66.7433 162.03 66.29C162.03 65.6967 162.13 65.1933 162.33 64.78C162.536 64.3667 162.83 64.0533 163.21 63.84C163.596 63.62 164.05 63.51 164.57 63.51C165.063 63.51 165.496 63.62 165.87 63.84C166.25 64.0533 166.546 64.3667 166.76 64.78C166.98 65.1933 167.09 65.7 167.09 66.3ZM163.12 66.3C163.12 66.7 163.17 67.0467 163.27 67.34C163.37 67.6267 163.526 67.8467 163.74 68C163.953 68.1533 164.226 68.23 164.56 68.23C164.893 68.23 165.166 68.1533 165.38 68C165.593 67.8467 165.75 67.6267 165.85 67.34C165.95 67.0467 166 66.7 166 66.3C166 65.8867 165.946 65.54 165.84 65.26C165.74 64.98 165.583 64.7667 165.37 64.62C165.163 64.4667 164.89 64.39 164.55 64.39C164.05 64.39 163.686 64.5567 163.46 64.89C163.233 65.2233 163.12 65.6933 163.12 66.3ZM164.54 70.86C164.373 70.86 164.23 70.81 164.11 70.71C163.99 70.6167 163.93 70.4633 163.93 70.25C163.93 70.03 163.99 69.8733 164.11 69.78C164.23 69.6867 164.373 69.64 164.54 69.64C164.7 69.64 164.84 69.6867 164.96 69.78C165.08 69.8733 165.14 70.03 165.14 70.25C165.14 70.4633 165.08 70.6167 164.96 70.71C164.84 70.81 164.7 70.86 164.54 70.86ZM167.974 66.24C167.974 65.6733 168.087 65.1767 168.314 64.75C168.547 64.3167 168.867 63.9833 169.274 63.75C169.68 63.5167 170.147 63.4 170.674 63.4C171.34 63.4 171.89 63.56 172.324 63.88C172.764 64.1933 173.06 64.6433 173.214 65.23H171.984C171.884 64.9567 171.724 64.7433 171.504 64.59C171.284 64.4367 171.007 64.36 170.674 64.36C170.207 64.36 169.834 64.5267 169.554 64.86C169.28 65.1867 169.144 65.6467 169.144 66.24C169.144 66.8333 169.28 67.2967 169.554 67.63C169.834 67.9633 170.207 68.13 170.674 68.13C171.334 68.13 171.77 67.84 171.984 67.26H173.214C173.054 67.82 172.754 68.2667 172.314 68.6C171.874 68.9267 171.327 69.09 170.674 69.09C170.147 69.09 169.68 68.9733 169.274 68.74C168.867 68.5 168.547 68.1667 168.314 67.74C168.087 67.3067 167.974 66.8067 167.974 66.24ZM181.597 69L180.837 66.94H178.077L177.317 69H176.197L178.907 61.83H180.027L182.727 69H181.597ZM179.817 63.99C179.797 63.9167 179.761 63.8067 179.707 63.66C179.661 63.5067 179.614 63.3533 179.567 63.2C179.521 63.04 179.484 62.91 179.457 62.81C179.424 62.9433 179.384 63.09 179.337 63.25C179.297 63.4033 179.257 63.5467 179.217 63.68C179.177 63.8067 179.144 63.91 179.117 63.99L178.397 66H180.537L179.817 63.99ZM180.527 59.96C180.527 60.2133 180.454 60.4133 180.307 60.56C180.161 60.7 179.964 60.8 179.717 60.86L179.667 61.34H179.037L178.957 60.52C179.197 60.48 179.381 60.4233 179.507 60.35C179.634 60.27 179.697 60.1567 179.697 60.01C179.697 59.87 179.644 59.7733 179.537 59.72C179.431 59.6667 179.297 59.64 179.137 59.64C179.037 59.64 178.937 59.6467 178.837 59.66C178.744 59.6667 178.664 59.68 178.597 59.7V59.09C178.664 59.0633 178.751 59.0433 178.857 59.03C178.971 59.0167 179.097 59.01 179.237 59.01C179.651 59.01 179.967 59.09 180.187 59.25C180.414 59.4033 180.527 59.64 180.527 59.96ZM186.27 63.4C186.704 63.4 187.09 63.49 187.43 63.67C187.777 63.85 188.047 64.1167 188.24 64.47C188.434 64.8233 188.53 65.25 188.53 65.75V69H187.4V65.92C187.4 65.4267 187.277 65.05 187.03 64.79C186.784 64.5233 186.447 64.39 186.02 64.39C185.594 64.39 185.254 64.5233 185 64.79C184.754 65.05 184.63 65.4267 184.63 65.92V69H183.49V63.49H184.63V64.12C184.817 63.8933 185.054 63.7167 185.34 63.59C185.634 63.4633 185.944 63.4 186.27 63.4ZM192.834 63.4C193.254 63.4 193.628 63.49 193.954 63.67C194.288 63.85 194.548 64.1167 194.734 64.47C194.928 64.8233 195.024 65.25 195.024 65.75V69H193.894V65.92C193.894 65.4267 193.771 65.05 193.524 64.79C193.278 64.5233 192.941 64.39 192.514 64.39C192.088 64.39 191.748 64.5233 191.494 64.79C191.248 65.05 191.124 65.4267 191.124 65.92V69H189.984V61.6H191.124V64.13C191.318 63.8967 191.561 63.7167 191.854 63.59C192.154 63.4633 192.481 63.4 192.834 63.4ZM201.366 69.07C200.9 69.07 200.48 68.99 200.106 68.83C199.733 68.6633 199.44 68.43 199.226 68.13C199.013 67.83 198.906 67.48 198.906 67.08H200.126C200.153 67.38 200.27 67.6267 200.476 67.82C200.69 68.0133 200.986 68.11 201.366 68.11C201.76 68.11 202.066 68.0167 202.286 67.83C202.506 67.6367 202.616 67.39 202.616 67.09C202.616 66.8567 202.546 66.6667 202.406 66.52C202.273 66.3733 202.103 66.26 201.896 66.18C201.696 66.1 201.416 66.0133 201.056 65.92C200.603 65.8 200.233 65.68 199.946 65.56C199.666 65.4333 199.426 65.24 199.226 64.98C199.026 64.72 198.926 64.3733 198.926 63.94C198.926 63.54 199.026 63.19 199.226 62.89C199.426 62.59 199.706 62.36 200.066 62.2C200.426 62.04 200.843 61.96 201.316 61.96C201.99 61.96 202.54 62.13 202.966 62.47C203.4 62.8033 203.64 63.2633 203.686 63.85H202.426C202.406 63.5967 202.286 63.38 202.066 63.2C201.846 63.02 201.556 62.93 201.196 62.93C200.87 62.93 200.603 63.0133 200.396 63.18C200.19 63.3467 200.086 63.5867 200.086 63.9C200.086 64.1133 200.15 64.29 200.276 64.43C200.41 64.5633 200.576 64.67 200.776 64.75C200.976 64.83 201.25 64.9167 201.596 65.01C202.056 65.1367 202.43 65.2633 202.716 65.39C203.01 65.5167 203.256 65.7133 203.456 65.98C203.663 66.24 203.766 66.59 203.766 67.03C203.766 67.3833 203.67 67.7167 203.476 68.03C203.29 68.3433 203.013 68.5967 202.646 68.79C202.286 68.9767 201.86 69.07 201.366 69.07ZM206.441 64.42V67.47C206.441 67.6767 206.488 67.8267 206.581 67.92C206.681 68.0067 206.848 68.05 207.081 68.05H207.781V69H206.881C206.368 69 205.975 68.88 205.701 68.64C205.428 68.4 205.291 68.01 205.291 67.47V64.42H204.641V63.49H205.291V62.12H206.441V63.49H207.781V64.42H206.441ZM213.822 63.49V69H212.682V68.35C212.502 68.5767 212.265 68.7567 211.972 68.89C211.685 69.0167 211.379 69.08 211.052 69.08C210.619 69.08 210.229 68.99 209.882 68.81C209.542 68.63 209.272 68.3633 209.072 68.01C208.879 67.6567 208.782 67.23 208.782 66.73V63.49H209.912V66.56C209.912 67.0533 210.035 67.4333 210.282 67.7C210.529 67.96 210.865 68.09 211.292 68.09C211.719 68.09 212.055 67.96 212.302 67.7C212.555 67.4333 212.682 67.0533 212.682 66.56V63.49H213.822ZM214.946 66.22C214.946 65.6667 215.06 65.1767 215.286 64.75C215.52 64.3233 215.833 63.9933 216.226 63.76C216.626 63.52 217.07 63.4 217.556 63.4C217.916 63.4 218.27 63.48 218.616 63.64C218.97 63.7933 219.25 64 219.456 64.26V61.6H220.606V69H219.456V68.17C219.27 68.4367 219.01 68.6567 218.676 68.83C218.35 69.0033 217.973 69.09 217.546 69.09C217.066 69.09 216.626 68.97 216.226 68.73C215.833 68.4833 215.52 68.1433 215.286 67.71C215.06 67.27 214.946 66.7733 214.946 66.22ZM219.456 66.24C219.456 65.86 219.376 65.53 219.216 65.25C219.063 64.97 218.86 64.7567 218.606 64.61C218.353 64.4633 218.08 64.39 217.786 64.39C217.493 64.39 217.22 64.4633 216.966 64.61C216.713 64.75 216.506 64.96 216.346 65.24C216.193 65.5133 216.116 65.84 216.116 66.22C216.116 66.6 216.193 66.9333 216.346 67.22C216.506 67.5067 216.713 67.7267 216.966 67.88C217.226 68.0267 217.5 68.1 217.786 68.1C218.08 68.1 218.353 68.0267 218.606 67.88C218.86 67.7333 219.063 67.52 219.216 67.24C219.376 66.9533 219.456 66.62 219.456 66.24ZM222.684 62.76C222.477 62.76 222.304 62.69 222.164 62.55C222.024 62.41 221.954 62.2367 221.954 62.03C221.954 61.8233 222.024 61.65 222.164 61.51C222.304 61.37 222.477 61.3 222.684 61.3C222.884 61.3 223.054 61.37 223.194 61.51C223.334 61.65 223.404 61.8233 223.404 62.03C223.404 62.2367 223.334 62.41 223.194 62.55C223.054 62.69 222.884 62.76 222.684 62.76ZM223.244 63.49V69H222.104V63.49H223.244ZM227.13 69.09C226.61 69.09 226.14 68.9733 225.72 68.74C225.3 68.5 224.97 68.1667 224.73 67.74C224.49 67.3067 224.37 66.8067 224.37 66.24C224.37 65.68 224.494 65.1833 224.74 64.75C224.987 64.3167 225.324 63.9833 225.75 63.75C226.177 63.5167 226.654 63.4 227.18 63.4C227.707 63.4 228.184 63.5167 228.61 63.75C229.037 63.9833 229.374 64.3167 229.62 64.75C229.867 65.1833 229.99 65.68 229.99 66.24C229.99 66.8 229.864 67.2967 229.61 67.73C229.357 68.1633 229.01 68.5 228.57 68.74C228.137 68.9733 227.657 69.09 227.13 69.09ZM227.13 68.1C227.424 68.1 227.697 68.03 227.95 67.89C228.21 67.75 228.42 67.54 228.58 67.26C228.74 66.98 228.82 66.64 228.82 66.24C228.82 65.84 228.744 65.5033 228.59 65.23C228.437 64.95 228.234 64.74 227.98 64.6C227.727 64.46 227.454 64.39 227.16 64.39C226.867 64.39 226.594 64.46 226.34 64.6C226.094 64.74 225.897 64.95 225.75 65.23C225.604 65.5033 225.53 65.84 225.53 66.24C225.53 66.8333 225.68 67.2933 225.98 67.62C226.287 67.94 226.67 68.1 227.13 68.1Z" fill="#B37E37"/>
<defs>
<linearGradient id="paint0_linear_46_1430" x1="74" y1="43" x2="265" y2="43" gradientUnits="userSpaceOnUse">
<stop stop-color="#B37E37"/>
<stop offset="1" stop-color="#FFF3E3"/>
</linearGradient>
</defs>
</svg>
